<svg width="14" height="14" viewBox="0 0 14 14" fill="none" xmlns="http://www.w3.org/2000/svg">
<g clip-path="url(#clip0_1063_1438)">
<path d="M7 0C3.13425 0 0 3.13425 0 7C0 10.8657 3.13425 14 7 14C10.8657 14 14 10.8657 14 7C14 3.13425 10.8657 0 7 0ZM5.25 4.08333H7.68359C8.88409 4.08333 9.70475 4.88718 9.70475 6.09993C9.70475 7.30043 8.85229 8.16667 7.62321 8.16667H6.41667V8.75H7.58333V9.33333H6.41667V10.5H5.25V9.33333H4.08333V8.75H5.25V8.16667H4.08333V7.58333H5.25V4.08333ZM6.41667 5.08594V7.11507H7.35661C8.05602 7.11507 8.46403 6.75958 8.46403 6.10449C8.46345 5.44124 8.06353 5.08594 7.36003 5.08594H6.41667Z" fill="white"/>
<path d="M7 0C3.13425 0 0 3.13425 0 7C0 10.8657 3.13425 14 7 14C10.8657 14 14 10.8657 14 7C14 3.13425 10.8657 0 7 0ZM5.25 4.08333H7.68359C8.88409 4.08333 9.70475 4.88718 9.70475 6.09993C9.70475 7.30043 8.85229 8.16667 7.62321 8.16667H6.41667V8.75H7.58333V9.33333H6.41667V10.5H5.25V9.33333H4.08333V8.75H5.25V8.16667H4.08333V7.58333H5.25V4.08333ZM6.41667 5.08594V7.11507H7.35661C8.05602 7.11507 8.46403 6.75958 8.46403 6.10449C8.46345 5.44124 8.06353 5.08594 7.36003 5.08594H6.41667Z" fill="url(#paint0_linear_1063_1438)"/>
<path d="M7 0C3.13425 0 0 3.13425 0 7C0 10.8657 3.13425 14 7 14C10.8657 14 14 10.8657 14 7C14 3.13425 10.8657 0 7 0ZM5.25 4.08333H7.68359C8.88409 4.08333 9.70475 4.88718 9.70475 6.09993C9.70475 7.30043 8.85229 8.16667 7.62321 8.16667H6.41667V8.75H7.58333V9.33333H6.41667V10.5H5.25V9.33333H4.08333V8.75H5.25V8.16667H4.08333V7.58333H5.25V4.08333ZM6.41667 5.08594V7.11507H7.35661C8.05602 7.11507 8.46403 6.75958 8.46403 6.10449C8.46345 5.44124 8.06353 5.08594 7.36003 5.08594H6.41667Z" fill="url(#paint1_linear_1063_1438)"/>
<path d="M7 0C3.13425 0 0 3.13425 0 7C0 10.8657 3.13425 14 7 14C10.8657 14 14 10.8657 14 7C14 3.13425 10.8657 0 7 0ZM5.25 4.08333H7.68359C8.88409 4.08333 9.70475 4.88718 9.70475 6.09993C9.70475 7.30043 8.85229 8.16667 7.62321 8.16667H6.41667V8.75H7.58333V9.33333H6.41667V10.5H5.25V9.33333H4.08333V8.75H5.25V8.16667H4.08333V7.58333H5.25V4.08333ZM6.41667 5.08594V7.11507H7.35661C8.05602 7.11507 8.46403 6.75958 8.46403 6.10449C8.46345 5.44124 8.06353 5.08594 7.36003 5.08594H6.41667Z" fill="url(#paint2_linear_1063_1438)"/>
</g>
<defs>
<linearGradient id="paint0_linear_1063_1438" x1="-2.30073e-08" y1="0.965517" x2="10.79" y2="16.264" gradientUnits="userSpaceOnUse">
<stop stop-color="#5856D6"/>
<stop offset="1" stop-color="#D000A2"/>
</linearGradient>
<linearGradient id="paint1_linear_1063_1438" x1="-2.30073e-08" y1="0.965517" x2="10.79" y2="16.264" gradientUnits="userSpaceOnUse">
<stop stop-color="#015FFF"/>
<stop offset="1" stop-color="#FF0856"/>
</linearGradient>
<linearGradient id="paint2_linear_1063_1438" x1="-2.30073e-08" y1="0.965517" x2="10.79" y2="16.264" gradientUnits="userSpaceOnUse">
<stop/>
<stop offset="1" stop-color="#FF0051"/>
</linearGradient>
<clipPath id="clip0_1063_1438">
<rect width="14" height="14" fill="white"/>
</clipPath>
</defs>
</svg>
